# xmcd
#
# Track frame offsets: 
#        150
#        20880
#        57262
#        77815
#        99260
#        123000
#        152000
#        181417
#        201345
#
# Disc length: 3227 seconds
#
# Revision: 1
# Processed by: cddbd v1.5.2PL0 Copyright (c) Steve Scherf et al.
# Submitted via: ExactAudioCopy v0.95b2
#
DISCID=6f0c9909
DTITLE=Bill Paul - 360 Degrees Of Billy Paul
DYEAR=1972
DGENRE=Soul
TTITLE0=Brown Baby
TTITLE1=I'm Just A Prisoner
TTITLE2=It's Too Late
TTITLE3=Me And Mrs. Jones
TTITLE4=Am I Black Enough For You
TTITLE5=Let's Stay Together
TTITLE6=Your Song
TTITLE7=I'm Gonna Make It This Time
TTITLE8=Me And Mrs. Jones (live in London 12-73)
EXTD=
EXTT0=
EXTT1=
EXTT2=
EXTT3=
EXTT4=
EXTT5=
EXTT6=
EXTT7=
EXTT8=
PLAYORDER=
